<?xml version="1.0" encoding="UTF-8"?>
<svg width="50px" height="51px" viewBox="0 0 50 51" version="1.1" xmlns="http://www.w3.org/2000/svg" xmlns:xlink="http://www.w3.org/1999/xlink">
    <!-- Generator: Sketch 54.1 (76490) - https://sketchapp.com -->
    <title>logo--textless--white</title>
    <desc>Created with Sketch.</desc>
    <g id="Desktop" stroke="none" stroke-width="1" fill="none" fill-rule="evenodd">
        <g id="Home-&gt;-Event-(Hover)" transform="translate(-90.000000, -70.000000)" fill="#FEFEFE" fill-rule="nonzero">
            <g id="logo--textless--white" transform="translate(90.000000, 70.000000)">
                <path d="M15.7960427,40.5627855 L19.4604409,15.5182744 L33.0407008,14.2619359 L33.9861155,7.18007504 C34.0623594,6.42126817 33.8222112,5.66474208 33.3244454,5.09565131 C32.8266796,4.52656055 32.1172321,4.19742298 31.3697352,4.18879275 L11.1715721,4.00183761 C9.56834411,3.94875448 8.14861659,5.05086837 7.77101056,6.64164423 L0.0611166678,42.1855561 C-0.126291405,43.2519799 0.121474194,44.3502343 0.746974416,45.2257127 C1.37247464,46.1011912 2.3213891,46.6778645 3.37373267,46.8220437 L25.8511515,50.9500132 C26.6479009,51.1005094 27.470162,50.9077933 28.1226965,50.4176236 C28.775231,49.9274539 29.1998334,49.1835533 29.2956858,48.362554 L29.9919215,40.5627855 L15.7960427,40.5627855 Z" id="Path"></path>
                <polygon id="Path" points="50 40 47.3722655 13 33.9517983 14.5827088 31 40"></polygon>
                <polyline id="Path" points="15.1818182 0 13 5 29 5 26.8181818 0"></polyline>
            </g>
        </g>
    </g>
</svg>